<svg xmlns="http://www.w3.org/2000/svg" width="332" height="176" viewBox="0 0 332 176"><g><g><g/><g/><g/></g><g><g><path fill="#123ce1" d="M30 124h8v51h-8z"/></g><g><path fill="#123ce1" d="M30 0h8v123h-8z"/></g><g><path fill="#4f7afe" d="M50 92h6v83h-6z"/></g></g><g><g><path fill="#123ce1" d="M100 117h8v58h-8z"/></g><g><path fill="#123ce1" d="M100 58h8v58h-8z"/></g><g><path fill="#4f7afe" d="M120 113h8v62h-8z"/></g><g><path fill="#4f7afe" d="M120 30h8v82h-8z"/></g></g><g><g><path fill="#123ce1" d="M172 119h8v56h-8z"/></g><g><path fill="#123ce1" d="M172 62h8v56h-8z"/></g><g><path fill="#4f7afe" d="M192 103h8v72h-8z"/></g><g><path fill="#4f7afe" d="M192 30h8v72h-8z"/></g></g><g><g><path fill="#123ce1" d="M244 119h8v56h-8z"/></g><g><path fill="#123ce1" d="M244 62h8v56h-8z"/></g><g><path fill="#4f7afe" d="M264 128h8v47h-8z"/></g><g><path fill="#4f7afe" d="M264 80h8v47h-8z"/></g></g></g></svg>