<svg width="24" height="28" viewBox="0 0 24 28" fill="none" xmlns="http://www.w3.org/2000/svg">
<path d="M21.6 8.29999C21.4 6.89999 20.3 5.89999 18.9 5.89999C17.4 5.89999 16.2 7.09999 16.2 8.59999L14.5 9.19999V10.2L16.3 9.59999C16.7 10.6 17.7 11.4 18.9 11.4C20.2 11.4 21.3 10.5 21.6 9.29999L24 10.3V9.29999L21.6 8.29999ZM18.9 10.4C17.9 10.4 17.1 9.59999 17.1 8.59999C17.1 7.59999 17.9 6.79999 18.9 6.79999C19.9 6.79999 20.7 7.59999 20.7 8.59999C20.7 9.59999 19.9 10.4 18.9 10.4Z" fill="#6B9AFF"/>
<path d="M0 5.5V27.5H5.5V5.5H0Z" fill="#6B9AFF"/>
<path d="M8.10004 0V27.5H13.6V0H8.10004Z" fill="#6B9AFF"/>
<path d="M16.7 13.2V27.5H21.1V13.2H16.7Z" fill="#6B9AFF"/>
</svg>
