<svg width="30" height="30" viewBox="0 0 30 30" fill="none" xmlns="http://www.w3.org/2000/svg">
<rect width="30" height="30" rx="2" fill="#FF0000"/>
<path d="M24 9.65886C23.3248 9.94409 22.6104 10.132 21.8794 10.2167C22.6476 9.77931 23.2254 9.08448 23.5043 8.26251C22.7779 8.67543 21.9846 8.96515 21.1583 9.11927C20.8103 8.76473 20.3918 8.48268 19.9282 8.29027C19.4647 8.09785 18.9657 7.9991 18.4616 8.00001C16.4209 8.00001 14.7694 9.58229 14.7694 11.5328C14.7679 11.8041 14.7999 12.0746 14.8646 12.3385C13.4013 12.2718 11.9683 11.9089 10.6575 11.273C9.34666 10.637 8.18681 9.74204 7.25213 8.64532C6.92422 9.18275 6.7508 9.79595 6.75 10.4208C6.75 11.6458 7.40738 12.7286 8.4 13.363C7.8119 13.3494 7.23585 13.1981 6.72075 12.9219V12.9656C6.72075 14.6792 7.99575 16.1047 9.68325 16.4291C9.36592 16.5114 9.03891 16.5531 8.7105 16.5531C8.47747 16.5535 8.24496 16.5315 8.01638 16.4875C8.4855 17.8911 9.85088 18.912 11.4683 18.9411C10.154 19.9258 8.54048 20.4581 6.88125 20.4541C6.58673 20.4537 6.29249 20.4367 6 20.4031C7.68794 21.451 9.65004 22.0053 11.6528 22C18.4538 22 22.1693 16.6151 22.1693 11.9448C22.1693 11.7917 22.1651 11.6385 22.1576 11.4891C22.8788 10.9903 23.5027 10.3706 24 9.65886Z" fill="white"/>
</svg>
