<svg width="13" height="13" viewBox="0 0 13 13" fill="none" xmlns="http://www.w3.org/2000/svg">
<path d="M6.5 0C2.91594 0 0 2.91594 0 6.5C0 10.0841 2.91594 13 6.5 13C10.0841 13 13 10.0841 13 6.5C13 2.91594 10.0841 0 6.5 0ZM8.66562 3.00531C9.11359 3.00593 9.55132 3.13933 9.92349 3.38866C10.2957 3.63798 10.5856 3.99204 10.7566 4.40608C10.9276 4.82013 10.972 5.27557 10.8842 5.71485C10.7964 6.15413 10.5804 6.55754 10.2634 6.87408C9.94646 7.19062 9.54276 7.40609 9.10335 7.49325C8.66395 7.58042 8.20857 7.53537 7.79476 7.3638C7.38096 7.19223 7.0273 6.90184 6.77849 6.52933C6.52967 6.15681 6.39688 5.7189 6.39687 5.27094C6.39708 4.97321 6.45593 4.67843 6.57005 4.40344C6.68418 4.12845 6.85135 3.87863 7.06202 3.66825C7.2727 3.45787 7.52274 3.29104 7.79789 3.17729C8.07304 3.06355 8.36789 3.00511 8.66562 3.00531ZM3.81875 3.82906C4.18528 3.82956 4.54344 3.9387 4.84796 4.14269C5.15247 4.34668 5.38969 4.63637 5.52961 4.97514C5.66953 5.31392 5.70588 5.68656 5.63408 6.04599C5.56227 6.40542 5.38552 6.73549 5.12617 6.99449C4.86681 7.25349 4.5365 7.4298 4.17698 7.50112C3.81746 7.57245 3.44486 7.53559 3.10627 7.39521C2.76769 7.25484 2.47832 7.01723 2.27474 6.71244C2.07116 6.40765 1.9625 6.04934 1.9625 5.68281C1.96262 5.4392 2.01074 5.198 2.1041 4.97298C2.19746 4.74797 2.33423 4.54355 2.50661 4.3714C2.67899 4.19926 2.88359 4.06276 3.10873 3.9697C3.33387 3.87665 3.57514 3.82886 3.81875 3.82906ZM1.44844 8.67281C2.21406 8.2575 3.19438 8.04969 3.81875 8.04969C4.2875 8.04969 4.89125 8.14344 5.48531 8.36844C5.08708 8.59065 4.72812 8.87687 4.42281 9.21562C4.01062 9.68437 3.77406 10.2444 3.77406 10.8041V11.2728C2.73905 10.68 1.92331 9.76855 1.44844 8.67437V8.67281ZM6.5 12C5.86724 12.0005 5.23918 11.8913 4.64375 11.6772V10.8319C4.64375 9.18844 7.32344 8.36031 8.66562 8.36031C9.38437 8.36031 10.49 8.59875 11.3597 9.07312C10.8917 9.95621 10.1921 10.6952 9.33595 11.2108C8.47981 11.7265 7.49943 11.9993 6.5 12Z" fill="white"/>
</svg>
