<svg width="12" height="12" viewBox="0 0 12 12" fill="none" xmlns="http://www.w3.org/2000/svg">
<path d="M6 0C2.69163 0 0 2.69163 0 6C0 9.30837 2.69163 12 6 12C9.30837 12 12 9.30837 12 6C12 2.69163 9.30837 0 6 0ZM6.05769 2.76923C6.46847 2.76923 6.87002 2.89104 7.21157 3.11926C7.55312 3.34747 7.81932 3.67184 7.97652 4.05135C8.13372 4.43086 8.17485 4.84846 8.09471 5.25134C8.01457 5.65423 7.81676 6.0243 7.5263 6.31476C7.23584 6.60522 6.86576 6.80303 6.46288 6.88317C6.06 6.96331 5.6424 6.92218 5.26289 6.76498C4.88338 6.60778 4.55901 6.34158 4.33079 6.00003C4.10258 5.65848 3.98077 5.25693 3.98077 4.84615C3.98077 4.29532 4.19959 3.76705 4.58909 3.37755C4.97858 2.98805 5.50686 2.76923 6.05769 2.76923ZM6 11.0769C5.29975 11.0772 4.60705 10.9323 3.96566 10.6512C3.32427 10.3702 2.74813 9.95923 2.27365 9.44423C2.52865 8.12365 4.81904 7.84615 6 7.84615C7.18096 7.84615 9.47135 8.12365 9.72635 9.44394C9.25192 9.95903 8.67581 10.3701 8.03441 10.6512C7.39301 10.9323 6.70028 11.0772 6 11.0769Z" fill="black"/>
</svg>
