<svg width="12" height="15" viewBox="0 0 12 15" fill="none" xmlns="http://www.w3.org/2000/svg">
<path d="M11.7477 10.3564C11.6959 10.2894 11.645 10.2224 11.595 10.1578C10.9081 9.26685 10.4925 8.72913 10.4925 6.20692C10.4925 4.90112 10.2012 3.82969 9.62702 3.02612C9.20362 2.43248 8.6313 1.98214 7.87693 1.64933C7.86722 1.64354 7.85855 1.63594 7.85133 1.6269C7.57999 0.652567 6.8375 0 6.00008 0C5.16266 0 4.42047 0.652567 4.14914 1.62589C4.1419 1.63461 4.13335 1.64196 4.12385 1.64766C2.36346 2.42478 1.50793 3.91574 1.50793 6.20591C1.50793 8.72913 1.09297 9.26685 0.405422 10.1568C0.355464 10.2214 0.304569 10.2871 0.252738 10.3554C0.118851 10.5285 0.0340228 10.7392 0.0082921 10.9624C-0.0174386 11.1856 0.0170054 11.4121 0.107548 11.615C0.300198 12.0502 0.710789 12.3204 1.17946 12.3204H10.8241C11.2906 12.3204 11.6984 12.0506 11.8917 11.6173C11.9826 11.4144 12.0174 11.1877 11.9919 10.9642C11.9664 10.7407 11.8816 10.5298 11.7477 10.3564ZM6.00008 15C6.45127 14.9996 6.89395 14.8683 7.28117 14.6199C7.66839 14.3716 7.98571 14.0155 8.19947 13.5894C8.20954 13.569 8.21452 13.5461 8.21391 13.523C8.21331 13.4999 8.20714 13.4774 8.19602 13.4576C8.18489 13.4378 8.16919 13.4215 8.15042 13.4101C8.13166 13.3988 8.11048 13.3928 8.08894 13.3929H3.91184C3.89027 13.3928 3.86905 13.3987 3.85025 13.41C3.83144 13.4213 3.81569 13.4377 3.80453 13.4575C3.79337 13.4773 3.78718 13.4998 3.78656 13.5229C3.78594 13.5461 3.79091 13.569 3.801 13.5894C4.01473 14.0154 4.332 14.3715 4.71916 14.6198C5.10632 14.8682 5.54894 14.9995 6.00008 15Z" fill="#535353"/>
</svg>
