<svg width="16" height="13" viewBox="0 0 16 13" fill="none" xmlns="http://www.w3.org/2000/svg">
<path d="M14 0H2C1.46974 0.000586561 0.961363 0.218672 0.586413 0.606404C0.211463 0.994137 0.000567223 1.51985 0 2.06818V10.9318C0.000567223 11.4802 0.211463 12.0059 0.586413 12.3936C0.961363 12.7813 1.46974 12.9994 2 13H14C14.5303 12.9994 15.0386 12.7813 15.4136 12.3936C15.7885 12.0059 15.9994 11.4802 16 10.9318V2.06818C15.9994 1.51985 15.7885 0.994137 15.4136 0.606404C15.0386 0.218672 14.5303 0.000586561 14 0ZM13.4936 3.42099L8.35071 7.55736C8.25043 7.63798 8.12702 7.68174 8 7.68174C7.87298 7.68174 7.74957 7.63798 7.64929 7.55736L2.50643 3.42099C2.446 3.37381 2.39525 3.31467 2.35712 3.24703C2.31899 3.17938 2.29424 3.10458 2.2843 3.02695C2.27437 2.94933 2.27946 2.87044 2.29926 2.79487C2.31907 2.7193 2.3532 2.64855 2.39968 2.58673C2.44615 2.52492 2.50405 2.47328 2.56999 2.4348C2.63594 2.39632 2.70862 2.37178 2.78382 2.36261C2.85901 2.35343 2.93522 2.3598 3.00802 2.38134C3.08081 2.40288 3.14874 2.43917 3.20786 2.4881L8 6.3423L12.7921 2.4881C12.912 2.39452 13.0626 2.35348 13.2115 2.37385C13.3603 2.39422 13.4955 2.47436 13.5876 2.59694C13.6798 2.71953 13.7216 2.8747 13.704 3.02891C13.6864 3.18312 13.6108 3.32397 13.4936 3.42099Z" fill="#535353"/>
</svg>
